<?xml version="1.0" standalone="no"?>
<!DOCTYPE svg PUBLIC "-//W3C//DTD SVG 20010904//EN"
 "http://www.w3.org/TR/2001/REC-SVG-20010904/DTD/svg10.dtd">
<svg version="1.0" xmlns="http://www.w3.org/2000/svg"
 width="500.000000pt" height="500.000000pt" viewBox="0 0 500.000000 500.000000"
 preserveAspectRatio="xMidYMid meet">

<g transform="translate(0.000000,500.000000) scale(0.100000,-0.100000)"
fill="#000000" stroke="none">
<path d="M2492 4636 c-40 -114 -47 -126 -83 -150 -53 -36 -115 -116 -160 -211
-22 -43 -125 -340 -230 -660 -105 -319 -204 -609 -220 -644 -63 -140 -153
-222 -336 -308 -54 -25 -118 -59 -142 -75 -33 -24 -58 -32 -107 -36 -35 -2
-64 -7 -64 -11 0 -3 12 -26 27 -51 21 -37 26 -56 24 -107 -2 -76 19 -180 51
-253 27 -61 823 -1396 924 -1551 73 -112 152 -188 233 -226 46 -21 65 -38 92
-80 l34 -52 34 52 c26 41 45 58 90 79 70 33 136 90 196 170 39 52 904 1488
948 1573 38 75 59 162 62 255 3 81 7 102 29 140 14 25 26 48 26 51 0 4 -29 9
-64 11 -49 4 -74 12 -107 36 -24 16 -88 50 -142 75 -172 81 -264 161 -327 287
-13 24 -114 319 -225 655 -111 335 -219 646 -241 690 -30 61 -58 99 -120 162
-81 81 -82 83 -119 192 -20 61 -37 111 -38 111 -1 0 -21 -56 -45 -124z"/>
</g>
</svg>
